<svg fill="none" height="16" width="16" xmlns="http://www.w3.org/2000/svg">
    <path fill="#d91f0a" d="M4.1.586A2 2 0 0 1 5.516 0h4.97A2 2 0 0 1 11.9.586L15.413 4.1A2 2 0 0 1 16 5.516v4.97a2 2 0 0 1-.586 1.415L11.9 15.413a2 2 0 0 1-1.414.586h-4.97a2 2 0 0 1-1.414-.586L.586 11.9A2 2 0 0 1 0 10.486v-4.97A2 2 0 0 1 .586 4.1z"/>
    <g fill="#fff">
        <path d="M8 3.25a.75.75 0 0 1 .75.75v5a.75.75 0 1 1-1.5 0V4A.75.75 0 0 1 8 3.25z"/>
        <path d="M8.8 11.8a.8.8 0 1 1-1.6 0 .8.8 0 0 1 1.6 0z"/>
    </g>
</svg>
