<svg xmlns="http://www.w3.org/2000/svg" viewBox="0 0 24 24" fill="#fff">
    <path d="M8 14a4 4 0 0 1 8 0Zm8.586-5A1 1 0 1 0 18 10.414l.707-.707a1 1 0 0 0-1.414-1.414ZM21 12h-1a1 1 0 0 0 0 2h1a1 1 0 0 0 0-2ZM4 14a1 1 0 0 0 0-2H3a1 1 0 0 0 0 2Zm1.293-5.707a1 1 0 0 0 0 1.414l.707.707A1 1 0 1 0 7.414 9l-.707-.707a1 1 0 0 0-1.414 0ZM6 18h12a1 1 0 0 0 0-2H6a1 1 0 0 0 0 2Zm10 3a1 1 0 0 0-1-1H9a1 1 0 0 0 0 2h6a1 1 0 0 0 1-1ZM12 2a1 1 0 0 0-1 1v1.586l-.293-.293a1 1 0 0 0-1.414 1.414l2 2a1 1 0 0 0 1.414 0l2-2a1 1 0 1 0-1.414-1.414L13 4.586V3a1 1 0 0 0-1-1Z"/>
</svg>
