<?xml version="1.0" encoding="utf-8"?>
<svg viewBox="0 0 128 128" style="enable-background:new 0 0 128 128" xmlns="http://www.w3.org/2000/svg" fill="white">
  <g>
    <path d="M 31.3 82.4 L 13.8 82.4 C 12.7 82.4 11.8 81.5 11.8 80.4 L 11.8 47.4 C 11.8 46.3 12.7 45.4 13.8 45.4 L 31.3 45.4 L 31.3 82.4 Z" />
    <path d="M 98.9 44.1 C 112 56.1 112 75.7 98.9 87.7 L 104.2 92.5 C 120.2 77.8 120.2 53.9 104.2 39.2 L 98.9 44.1 L 98.9 44.1 Z" />
    <path d="M 81.3 60.3 C 84.7 63.4 84.7 68.5 81.3 71.6 L 86.6 76.4 C 92.9 70.6 92.9 61.2 86.6 55.4 L 81.3 60.3 Z" />
    <path d="M 72.1 19.2 L 34.7 45.5 L 34.7 82.4 L 72.1 108.8 L 72.1 19.2 L 72.1 19.2 Z" />
  </g>
</svg>