<?xml version="1.0" encoding="utf-8"?>
<svg viewBox="0 0 128 128" style="enable-background:new 0 0 128 128" xmlns="http://www.w3.org/2000/svg" fill="white">
  <g>
    <path d="M 19.5 82.4 L 2 82.4 C 0.8999999999999999 82.4 0 81.5 0 80.4 L 0 47.400000000000006 C 0 46.300000000000004 0.9 45.400000000000006 2 45.400000000000006 L 19.5 45.400000000000006 L 19.5 82.4 Z" />
    <path d="M 103.8 28.800000000000008 C 126.1 49.30000000000001 126.1 82.60000000000001 103.8 103.10000000000001 L 109.1 107.9 C 134.29999999999998 84.7 134.29999999999998 47.10000000000001 109.1 23.900000000000006 L 103.8 28.800000000000004 L 103.8 28.800000000000008 Z" />
    <path d="M 87.1 44.10000000000001 C 100.19999999999999 56.10000000000001 100.19999999999999 75.70000000000002 87.1 87.70000000000002 L 92.39999999999999 92.50000000000001 C 108.39999999999999 77.80000000000001 108.39999999999999 53.90000000000001 92.39999999999999 39.20000000000002 L 87.1 44.100000000000016 L 87.1 44.10000000000001 Z" />
    <path d="M 69.5 60.300000000000004 C 72.9 63.400000000000006 72.9 68.5 69.5 71.60000000000001 L 74.8 76.4 C 81.1 70.60000000000001 81.1 61.2 74.8 55.400000000000006 L 69.5 60.300000000000004 Z" />
    <path d="M 60.3 19.200000000000003 L 22.9 45.5 L 22.9 82.4 L 60.3 108.80000000000001 L 60.3 19.2 L 60.3 19.200000000000003 Z" />
  </g>
</svg>