<svg xmlns="http://www.w3.org/2000/svg" xml:space="preserve" width="2048" height="2048" style="shape-rendering:geometricPrecision;text-rendering:geometricPrecision;image-rendering:optimizeQuality;fill-rule:evenodd;clip-rule:evenodd" fill="white">
    <g>
        <g>
            <path d="M1674.24 770.169V874.24h85.761c17.673 0 32 14.328 32 32v235.52c0 17.674-14.327 32.002-32 32.002h-85.761v104.069c0 36.013-14.71 68.73-38.408 92.43-23.698 23.697-56.417 38.407-92.429 38.407H386.833c-36.012 0-68.73-14.71-92.428-38.408-23.698-23.7-38.408-56.416-38.408-92.43V770.17c0-36.013 14.71-68.73 38.408-92.43 23.698-23.698 56.417-38.408 92.428-38.408h1156.57c36.012 0 68.731 14.71 92.429 38.408 23.697 23.7 38.408 56.417 38.408 92.43zm-64.002 136.071V770.169c0-18.346-7.53-35.05-19.657-47.18-12.127-12.127-28.832-19.656-47.178-19.656H386.833c-18.346 0-35.05 7.53-47.178 19.657-12.127 12.128-19.657 28.833-19.657 47.179v507.662c0 18.346 7.53 35.05 19.657 47.18 12.128 12.127 28.832 19.656 47.178 19.656h1156.57c18.346 0 35.05-7.53 47.178-19.657 12.128-12.129 19.657-28.833 19.657-47.179v-136.07c0-17.673 14.328-32 32.001-32H1728V938.24h-85.76c-17.674 0-32.002-14.328-32.002-32z"/>
            <path d="M467.188 773.76c0-17.673-14.328-32-32-32-17.674 0-32.002 14.327-32.002 32v88.32c0 17.673 14.328 32.001 32.001 32.001s32.001-14.328 32.001-32V773.76z"/>
            <path d="M467.188 979.84c0-17.673-14.328-32-32-32-17.674 0-32.002 14.327-32.002 32v88.32c0 17.673 14.328 32.001 32.001 32.001s32.001-14.328 32.001-32V979.84z"/>
            <path d="M467.188 1185.92c0-17.673-14.328-32-32-32-17.674 0-32.002 14.327-32.002 32v88.32c0 17.673 14.328 32.001 32.001 32.001s32.001-14.328 32.001-32v-88.321z"/>
            <path d="M584.95 773.76c0-17.673-14.328-32-32-32-17.674 0-32.002 14.327-32.002 32v88.32c0 17.673 14.328 32.001 32.001 32.001s32.001-14.328 32.001-32V773.76z"/>
            <path d="M584.95 979.84c0-17.673-14.328-32-32-32-17.674 0-32.002 14.327-32.002 32v88.32c0 17.673 14.328 32.001 32.001 32.001s32.001-14.328 32.001-32V979.84z"/>
            <path d="M584.95 1185.92c0-17.673-14.328-32-32-32-17.674 0-32.002 14.327-32.002 32v88.32c0 17.673 14.328 32.001 32.001 32.001s32.001-14.328 32.001-32v-88.321z"/>
            <path d="M702.713 773.76c0-17.673-14.328-32-32-32-17.674 0-32.002 14.327-32.002 32v88.32c0 17.673 14.328 32.001 32.001 32.001s32.001-14.328 32.001-32V773.76z"/>
            <path d="M702.713 979.84c0-17.673-14.328-32-32-32-17.674 0-32.002 14.327-32.002 32v88.32c0 17.673 14.328 32.001 32.001 32.001s32.001-14.328 32.001-32V979.84z"/>
            <path d="M702.713 1185.92c0-17.673-14.328-32-32-32-17.674 0-32.002 14.327-32.002 32v88.32c0 17.673 14.328 32.001 32.001 32.001s32.001-14.328 32.001-32v-88.321z"/>
            <path d="M820.476 773.76c0-17.673-14.328-32-32-32-17.674 0-32.002 14.327-32.002 32v88.32c0 17.673 14.328 32.001 32.001 32.001s32.001-14.328 32.001-32V773.76z"/>
            <path d="M820.476 979.84c0-17.673-14.328-32-32-32-17.674 0-32.002 14.327-32.002 32v88.32c0 17.673 14.328 32.001 32.001 32.001s32.001-14.328 32.001-32V979.84z"/>
            <path d="M820.476 1185.92c0-17.673-14.328-32-32-32-17.674 0-32.002 14.327-32.002 32v88.32c0 17.673 14.328 32.001 32.001 32.001s32.001-14.328 32.001-32v-88.321z"/>
            <path d="M938.239 773.76c0-17.673-14.328-32-32-32-17.674 0-32.002 14.327-32.002 32v88.32c0 17.673 14.328 32.001 32.001 32.001s32.001-14.328 32.001-32V773.76z"/>
            <path d="M938.239 979.84c0-17.673-14.328-32-32-32-17.674 0-32.002 14.327-32.002 32v88.32c0 17.673 14.328 32.001 32.001 32.001s32.001-14.328 32.001-32V979.84z"/>
            <path d="M938.239 1185.92c0-17.673-14.328-32-32-32-17.674 0-32.002 14.327-32.002 32v88.32c0 17.673 14.328 32.001 32.001 32.001s32.001-14.328 32.001-32v-88.321z"/>
        </g>
    </g>
</svg>
