<svg xmlns:xlink="http://www.w3.org/1999/xlink" xmlns="http://www.w3.org/2000/svg" viewBox="0 0 400 103.0985244671816" preserveAspectRatio="xMidYMid meet" width="300"  height="103.0985244671816" >
    <g transform="matrix(1.623598575592041,0,0,1.623598575592041,-41.16981982226097,-29.549492942851458)" fill="#111111">
        <path xmlns="http://www.w3.org/2000/svg" fill="#111111" d="M70.7 22.2l-6.6 52.4-13.5-12-8.5 15.1-4.1-2.3 8.5-15.1-17.1-5.4 41.3-32.7m0-4c-.9 0-1.8.3-2.5.9L26.9 51.8c-1.2.9-1.7 2.4-1.5 3.9.3 1.5 1.3 2.6 2.7 3.1l12.4 3.9-6.1 10.8c-1.1 1.9-.4 4.4 1.5 5.4l4.1 2.3c.6.3 1.3.5 2 .5.4 0 .7 0 1.1-.1 1-.3 1.9-1 2.4-1.9l6.1-10.8 9.8 8.6c.7.7 1.7 1 2.6 1 .5 0 1-.1 1.4-.3 1.4-.5 2.4-1.8 2.6-3.2l6.6-52.4c.2-1.6-.6-3.2-2-4-.5-.3-1.2-.4-1.9-.4z"></path>
    </g>
    <g transform="matrix(3.8361525535583496,0,0,3.8361525535583496,95.12456238653806,0.7473040771778656)" fill="#111111">
        <path d="M16.542 6.441000000000001 c0.15254 0 0.27168 0.11881 0.27168 0.28847 l0 12.983 c0 0.15254 -0.10169 0.28797 -0.27136 0.28797 l-1.339 0 c-0.18644 0 -0.28814 -0.11864 -0.28814 -0.28814 l0 -9.339 l-5.5254 9.0339 c-0.084746 0.13559 -0.16949 0.20339 -0.30508 0.20339 l-0.08458 0 c-0.13559 0 -0.22034 -0.067797 -0.30508 -0.20339 l-5.5085 -9.0339 l0 9.339 c0 0.15254 -0.11881 0.28797 -0.28831 0.28797 l-1.339 0 c-0.16949 0 -0.28831 -0.11864 -0.28831 -0.28814 l0 -13 c0 -0.15254 0.10186 -0.27119 0.27119 -0.27119 l1.1525 0 c0.15254 0 0.25424 0.050847 0.33898 0.18644 l6.0169 9.8307 l6.0168 -9.8307 c0.067797 -0.13559 0.16949 -0.18644 0.33898 -0.18644 l1.1356 0 z M25.949145762711865 16.4915 c0.61 0 1.0336 -0.30508 1.0336 -1.0169 c0 -2.0847 -1.6102 -3.9831 -4.0847 -3.9831 c-2.3559 0 -4.2034 1.8644 -4.2034 4.3051 c0 2.5422 1.9322 4.288 4.3051 4.288 c1.5085 0 2.6949 -0.61017 3.4237 -1.5932 c0.10186 -0.13559 0.067963 -0.23729 -0.033568 -0.37288 l-0.32203 -0.42373 c-0.13559 -0.16933 -0.27119 -0.15254 -0.44085 -0.050847 c-0.5422 0.44068 -1.4405 0.81373 -2.4236 0.81373 c-1.3898 0 -2.3729 -0.84746 -2.5593 -1.9661 l5.3051 0 z M20.643945762711866 15.050799999999999 c0.067797 -0.81356 0.83051 -1.8644 2.2203 -1.8644 c1.4068 0 2.1356 1.0678 2.1864 1.8644 l-4.4068 0 z M35.57606949152542 20.11864 c3.8136 0 6.9153 -3.0337 6.9153 -6.9151 c0 -3.8305 -3.1017 -6.8814 -6.9153 -6.8814 c-3.8475 0 -6.9492 3.0508 -6.9492 6.8814 c0 3.8814 3.1017 6.9151 6.9492 6.9151 z M35.57606949152542 18.2714 c-2.7458 0 -5.0339 -2.2881 -5.0339 -5.0678 c0 -2.7456 2.2881 -5.0337 5.0339 -5.0337 c2.7288 0 5.0169 2.2881 5.0169 5.0337 c0 2.7797 -2.2881 5.0678 -5.0169 5.0678 z M44.35593457627119 17.678 l0.74576 -0.84763 c0.18644 -0.20339 0.38983 -0.20339 0.5422 -0.084746 c0.4578 0.38983 1.6103 1.5424 3.1527 1.5424 c1.6949 0 2.7119 -0.81356 2.7119 -1.9322 c0 -1.3898 -1.5257 -1.7797 -2.9834 -2.339 c-2.2203 -0.88136 -3.9831 -1.8644 -3.9831 -3.9831 c0 -1.7288 1.2712 -3.6949 4.322 -3.6949 c2.0847 0 3.5932 1.2034 4.0169 1.6102 c0.15254 0.15254 0.23729 0.35593 0.10169 0.52542 l-0.66102 0.86441 c-0.13559 0.18661 -0.32203 0.25441 -0.54237 0.10186 c-0.44068 -0.33898 -1.4915 -1.2881 -2.8983 -1.2881 c-1.5254 0 -2.4237 0.84746 -2.4237 1.8814 c0 1.1695 1.1186 1.6441 2.712 2.2542 c2.0339 0.81356 4.2373 1.7627 4.2373 4.0847 c0 1.9831 -1.8981 3.7456 -4.5931 3.7456 c-2.4407 0 -3.9492 -1.5761 -4.3729 -1.9829 c-0.13559 -0.11864 -0.25424 -0.27102 -0.084746 -0.45763 z" fill="#111111"></path>
    </g>
    <style>
        * {
            fill: #111111;
        }

        @media (prefers-color-scheme: dark) {
            * {
                fill: #dddddd;
            }
        }
    </style>
</svg>