<?xml version="1.0" standalone="no"?>
<!DOCTYPE svg PUBLIC "-//W3C//DTD SVG 20010904//EN"
 "http://www.w3.org/TR/2001/REC-SVG-20010904/DTD/svg10.dtd">
<svg version="1.0" xmlns="http://www.w3.org/2000/svg"
 width="750.000000pt" height="750.000000pt" viewBox="0 0 750.000000 750.000000"
 preserveAspectRatio="xMidYMid meet">
<metadata>
Created by potrace 1.14, written by Peter Selinger 2001-2017
</metadata>
<g transform="translate(0.000000,750.000000) scale(0.100000,-0.100000)"
fill="#000000" stroke="none">
<path d="M1420 6933 c-333 -53 -610 -254 -757 -548 -38 -75 -79 -193 -94 -270
-8 -44 -13 -675 -16 -2405 l-4 -2345 30 -155 c28 -141 36 -166 93 -280 120
-239 239 -367 423 -455 124 -59 233 -96 345 -116 111 -21 4519 -21 4630 0 122
22 227 59 355 124 162 84 261 178 355 338 56 94 130 280 141 354 6 39 15 97
20 131 12 78 11 4333 -1 4614 -10 230 -23 294 -90 437 -72 153 -177 284 -310
385 -81 62 -239 140 -345 170 l-80 23 -2335 1 c-1284 1 -2346 0 -2360 -3z
m4319 -1130 c63 -39 104 -107 109 -183 4 -57 0 -69 -742 -1851 l-746 -1794
-50 -46 c-101 -96 -240 -87 -332 20 -29 34 -63 125 -237 641 l-204 601 -551
-550 c-548 -546 -551 -549 -610 -566 -75 -22 -147 -9 -208 38 -81 62 -112 180
-73 275 11 26 184 205 562 584 301 301 545 549 543 551 -5 4 -730 252 -1054
360 -163 54 -209 84 -248 160 -44 88 -16 215 62 278 22 17 713 311 1810 767
976 407 1784 742 1795 745 45 13 128 -2 174 -30z"/>
<path d="M3983 4670 c-656 -273 -1195 -499 -1199 -502 -3 -3 41 -22 98 -41
525 -177 829 -282 858 -297 49 -25 89 -68 110 -115 9 -22 86 -244 170 -493 84
-249 157 -449 161 -445 9 9 1000 2385 996 2389 -1 1 -539 -222 -1194 -496z"/>
</g>
</svg>
